# xmcd
#
# Track frame offsets:
#	150
#	15833
#	34560
#	47953
#	66196
#	83006
#	98515
#	117958
#	138746
#	161672
#
# Disc length: 2384 seconds
#
# Revision: 1
# Processed by: cddbd v1.4b42PL0 Copyright (c) Steve Scherf et al.
# Submitted via: audiograbber 1.80
#
DISCID=76094e0a
DTITLE=Luís Dillah - Que Nem Eu
DYEAR=1900
DGENRE=
TTITLE0=Sertanejo
TTITLE1=Alcalino
TTITLE2=Estrela Cadente
TTITLE3=Calendário
TTITLE4=Dor de Calundú
TTITLE5=Presa
TTITLE6=Sinueiro
TTITLE7=Lagrimãe
TTITLE8=Que Nem Eu
TTITLE9=Fronteiras Musicais
EXTD=Fonogramas gentilmente cedidos por CARREFOUR
EXTT0=
EXTT1=
EXTT2=
EXTT3=
EXTT4=
EXTT5=
EXTT6=
EXTT7=
EXTT8=
EXTT9=
PLAYORDER=
